<svg t="1680420044505" class="icon" viewBox="0 0 1024 1024" version="1.1" xmlns="http://www.w3.org/2000/svg" p-id="1476" width="32" height="32"><path d="M311.466667 884.053333v0.192H213.333333c-37.704533 0-68.266667-30.5664-68.266666-68.266666V192c0-37.704533 30.562133-68.266667 68.266666-68.266667h559.944534c37.704533 0 68.266667 30.562133 68.266666 68.266667v161.373867a25.6 25.6 0 0 1-51.1872 0.832h-0.1024V196.352a21.333333 21.333333 0 0 0-21.333333-21.333333H217.693867a21.333333 21.333333 0 0 0-21.333334 21.333333v615.2704a21.333333 21.333333 0 0 0 21.333334 21.333333h91.4432A25.6 25.6 0 1 1 311.466667 884.053333z" p-id="1477"></path><path d="M840.533333 857.728c0 16.6272-6.920533 25.472-23.04 25.472-16.119467 0-25.4592-10.171733-25.4592-25.472 0-102.877867-66.282667-160.6784-169.1008-160.6784-102.818133 0-169.1008 57.800533-169.1008 160.682667 0 13.841067-11.6992 25.467733-25.4592 25.467733-13.76 0-23.04-9.024-23.04-25.472 0-121.582933 96.085333-209.194667 217.6-209.194667s217.6 87.611733 217.6 209.194667z" p-id="1478"></path><path d="M627.165867 691.2a136.494933 136.494933 0 0 1-96.516267-233.019733 136.494933 136.494933 0 1 1 193.0368 193.041066 135.6032 135.6032 0 0 1-96.520533 39.978667z m0.034133-230.4c-51.754667 0-93.866667 42.112-93.866667 93.866667s42.112 93.866667 93.866667 93.866666 93.866667-42.112 93.866667-93.866666-42.112-93.866667-93.866667-93.866667z" p-id="1479"></path></svg>