<?xml version="1.0" standalone="no"?><!DOCTYPE svg PUBLIC "-//W3C//DTD SVG 1.1//EN" "http://www.w3.org/Graphics/SVG/1.1/DTD/svg11.dtd"><svg t="1678620484931" class="icon" viewBox="0 0 1024 1024" version="1.1" xmlns="http://www.w3.org/2000/svg" p-id="2683" xmlns:xlink="http://www.w3.org/1999/xlink" width="32" height="32"><path d="M832.512 983.04H663.552c-17.408 0-30.72-13.312-30.72-30.72V728.064H391.168V952.32c0 17.408-13.312 30.72-30.72 30.72H191.488c-17.408 0-30.72-13.312-30.72-30.72V552.96H61.44c-17.408 0-30.72-13.312-30.72-30.72s13.312-30.72 30.72-30.72h130.048c17.408 0 30.72 13.312 30.72 30.72v399.36h107.52V697.344c0-17.408 13.312-30.72 30.72-30.72h303.104c17.408 0 30.72 13.312 30.72 30.72V921.6h138.24c17.408 0 30.72 13.312 30.72 30.72s-14.336 30.72-30.72 30.72z" p-id="2684"></path><path d="M61.44 552.96c-8.192 0-15.36-3.072-21.504-9.216-12.288-12.288-12.288-31.744 0-43.008l450.56-450.56c12.288-12.288 31.744-12.288 43.008 0 12.288 12.288 12.288 31.744 0 43.008l-450.56 450.56c-5.12 6.144-13.312 9.216-21.504 9.216z" p-id="2685"></path><path d="M832.512 879.616c-17.408 0-30.72-13.312-30.72-30.72V522.24c0-17.408 13.312-30.72 30.72-30.72h55.296L490.496 93.184c-12.288-12.288-12.288-31.744 0-43.008 12.288-12.288 31.744-12.288 43.008 0l450.56 450.56c9.216 9.216 11.264 21.504 7.168 33.792-5.12 10.24-16.384 18.432-28.672 18.432h-99.328v295.936c0 17.408-14.336 30.72-30.72 30.72z" p-id="2686"></path></svg>