<?xml version="1.0" standalone="no"?><!DOCTYPE svg PUBLIC "-//W3C//DTD SVG 1.1//EN" "http://www.w3.org/Graphics/SVG/1.1/DTD/svg11.dtd"><svg t="1678620476086" class="icon" viewBox="0 0 1024 1024" version="1.1" xmlns="http://www.w3.org/2000/svg" p-id="2217" xmlns:xlink="http://www.w3.org/1999/xlink" width="32" height="32"><path d="M889.5 357.8L833 301.9c-15.5-15.4-40.9-15.4-56.4 0l-395 391.3L494.4 805l395-391.3c15.6-15.4 15.6-40.5 0.1-55.9zM344 863.9l133.2-41.7-112.9-111.8-42.1 131.9c-5.6 17.4 4.1 27.1 21.8 21.6zM675.4 243.8c0-17.6-16.2-32-36-32H282.9c-19.8 0-36 14.4-36 32s16.2 32 36 32h356.5c19.8 0 36-14.4 36-32zM521.8 383.1c0-17.6-16.2-32-36-32H282.9c-19.8 0-36 14.4-36 32s16.2 32 36 32h202.9c19.8 0 36-14.4 36-32zM425.2 522.3c0-17.6-16.2-32-36-32H282.9c-19.8 0-36 14.4-36 32s16.2 32 36 32h106.3c19.8 0 36-14.4 36-32z" p-id="2218"></path><path d="M783.6 616.8c-19.9 0-36 16.1-36 36V886H193V138h554.6v76.4c0 19.9 16.1 36 36 36s36-16.1 36-36V102c0-19.9-16.1-36-36-36H157c-19.9 0-36 16.1-36 36v820c0 19.9 16.1 36 36 36h626.6c19.9 0 36-16.1 36-36V652.8c0-19.9-16.2-36-36-36z" p-id="2219"></path></svg>