<?xml version="1.0" standalone="no"?><!DOCTYPE svg PUBLIC "-//W3C//DTD SVG 1.1//EN" "http://www.w3.org/Graphics/SVG/1.1/DTD/svg11.dtd"><svg t="1678620431859" class="icon" viewBox="0 0 1024 1024" version="1.1" xmlns="http://www.w3.org/2000/svg" p-id="1754" xmlns:xlink="http://www.w3.org/1999/xlink" width="32" height="32"><path d="M619.7 884.8c-21.4-29-46.9-54.5-76-75.8-26.4-19.3-55-34.7-85.1-45.9 19.8-11.3 38.2-25.2 54.7-41.8 48.4-48.4 75-112.7 75-181.1s-26.6-132.7-75-181.1-112.7-75-181.1-75-132.7 26.6-181.1 75-75 112.7-75 181.1 26.6 132.7 75 181.1c17.5 17.5 37.1 32.1 58.2 43.7-28.3 11-55.1 25.7-80.1 43.9-29.1 21.3-54.7 46.8-76 75.8-21.6 29.4-38.4 61.8-50 96.2-5.6 16.8 3.4 34.9 20.2 40.5 3.4 1.1 6.8 1.7 10.2 1.7 13.4 0 25.8-8.5 30.3-21.8 39.3-117.2 148.9-196 272.6-196 123.7 0 233.3 78.8 272.6 196 5.6 16.8 23.8 25.8 40.5 20.2 16.8-5.6 25.8-23.8 20.2-40.5-11.7-34.4-28.5-66.8-50.1-96.2zM140.1 540.3c0-105.9 86.2-192.1 192.1-192.1s192.1 86.2 192.1 192.1-86.2 192.1-192.1 192.1-192.1-86.2-192.1-192.1z" p-id="1755"></path><path d="M928.1 1H415c-52.9 0-96 43.1-96 96v123.5c0 17.7 14.3 32 32 32s32-14.3 32-32V97c0-17.6 14.4-32 32-32h513.1c17.6 0 32 14.4 32 32v348.9c0 17.6-14.4 32-32 32h-256c-17.7 0-32 14.3-32 32s14.3 32 32 32h256c52.9 0 96-43.1 96-96V97c0-52.9-43-96-96-96z" p-id="1756"></path></svg>